<svg width="620" height="802" viewBox="0 0 620 802" fill="none" xmlns="http://www.w3.org/2000/svg">
<path d="M196.639 324.813L232.229 718.217H187.344C147.9 718.217 128.405 696.224 121.151 657.676L62.2112 346.581C51.5568 290.802 90.5475 260.871 129.085 260.871C160.822 260.871 192.785 281.278 196.639 324.813Z" fill="#FF0000" fill-opacity="0.85"/>
<path d="M372.778 327.081L341.745 718.217C326.92 718.217 315.121 718.217 315.121 718.217H265.553L230.416 327.081C225.882 275.61 268.5 252.482 301.597 252.482C334.694 252.482 377.312 275.61 372.778 327.081Z" fill="white" fill-opacity="0.85"/>
<path d="M324.492 77.8872C334.013 75.8467 344.894 76.3 353.282 79.0212C366.657 66.0962 384.566 58.8404 404.288 58.8404C435.344 58.8404 458.239 78.1138 468.893 106.23C514.006 107.137 546.421 142.056 546.421 190.353C546.421 209.627 540.074 226.633 529.874 240.691C513.101 230.487 493.151 225.046 473.429 225.046C442.825 225.046 412.222 237.29 392.5 262.912C372.324 233.208 337.187 216.429 301.597 216.429C266.006 216.429 230.869 233.208 210.694 262.912C190.972 237.29 160.595 225.046 130.218 225.046C110.269 225.046 90.0939 230.487 73.0921 240.464C64.7047 227.086 61.0775 213.028 61.0775 197.609C61.0775 154.754 96.4413 118.928 139.059 120.062C139.059 97.1606 159.688 76.7536 183.264 79.9281C188.478 54.986 215.454 31.4043 254.672 31.4043C285.275 31.4043 312.478 49.544 324.492 77.8872Z" fill="#FFC404"/>
<path d="M406.553 324.813L370.963 718.217H415.848C455.292 718.217 474.787 696.224 482.041 657.676L540.981 346.581C551.635 290.802 512.645 260.871 474.107 260.871C442.371 260.871 410.407 281.278 406.553 324.813Z" fill="#FF0000" fill-opacity="0.85"/>
</svg>
